<mxfile host="app.diagrams.net" modified="2021-02-22T23:15:30.168Z" agent="5.0 (Macintosh)" etag="8jX8egbik1leAmWutwLn" version="14.4.2" type="github">
  <diagram id="aPMl2jbAjiGOHm_YZlG1" name="Page-1">
    <mxGraphModel dx="735" dy="750" grid="1" gridSize="10" guides="1" tooltips="1" connect="1" arrows="1" fold="1" page="1" pageScale="1" pageWidth="1100" pageHeight="1700" math="0" shadow="0">
      <root>
        <mxCell id="0" />
        <mxCell id="1" parent="0" />
        <mxCell id="jGeaBIZGjeNkgH-qbHt9-36" style="edgeStyle=orthogonalEdgeStyle;rounded=0;orthogonalLoop=1;jettySize=auto;html=1;exitX=0.5;exitY=1;exitDx=0;exitDy=0;entryX=0.5;entryY=0;entryDx=0;entryDy=0;fontFamily=Garamond;fontSize=12;" parent="1" source="jGeaBIZGjeNkgH-qbHt9-1" target="jGeaBIZGjeNkgH-qbHt9-2" edge="1">
          <mxGeometry relative="1" as="geometry" />
        </mxCell>
        <mxCell id="jGeaBIZGjeNkgH-qbHt9-1" value="Initiate" style="shape=module;align=right;spacingLeft=20;align=center;verticalAlign=middle;fontFamily=Garamond;fontSize=18;labelBackgroundColor=none;gradientColor=#E6E6E6;fillColor=#3399FF;" parent="1" vertex="1">
          <mxGeometry x="30" y="69" width="150" height="50" as="geometry" />
        </mxCell>
        <mxCell id="jGeaBIZGjeNkgH-qbHt9-37" style="edgeStyle=orthogonalEdgeStyle;rounded=0;orthogonalLoop=1;jettySize=auto;html=1;exitX=0.5;exitY=1;exitDx=0;exitDy=0;entryX=0.5;entryY=0;entryDx=0;entryDy=0;fontFamily=Garamond;fontSize=12;" parent="1" source="jGeaBIZGjeNkgH-qbHt9-2" target="jGeaBIZGjeNkgH-qbHt9-3" edge="1">
          <mxGeometry relative="1" as="geometry" />
        </mxCell>
        <mxCell id="jGeaBIZGjeNkgH-qbHt9-2" value="Data Sourcing" style="shape=module;align=right;spacingLeft=20;align=center;verticalAlign=middle;fontFamily=Garamond;fontSize=18;labelBackgroundColor=none;gradientColor=#E6E6E6;fillColor=#3399FF;" parent="1" vertex="1">
          <mxGeometry x="30" y="250" width="150" height="50" as="geometry" />
        </mxCell>
        <mxCell id="jGeaBIZGjeNkgH-qbHt9-45" style="edgeStyle=orthogonalEdgeStyle;rounded=0;orthogonalLoop=1;jettySize=auto;html=1;exitX=0.5;exitY=1;exitDx=0;exitDy=0;entryX=0.5;entryY=0;entryDx=0;entryDy=0;fontFamily=Garamond;fontSize=12;" parent="1" source="jGeaBIZGjeNkgH-qbHt9-3" target="jGeaBIZGjeNkgH-qbHt9-44" edge="1">
          <mxGeometry relative="1" as="geometry" />
        </mxCell>
        <mxCell id="jGeaBIZGjeNkgH-qbHt9-3" value="Data Sourcing II" style="shape=module;align=right;spacingLeft=20;align=center;verticalAlign=middle;fontFamily=Garamond;fontSize=18;labelBackgroundColor=none;gradientColor=#E6E6E6;fillColor=#3399FF;" parent="1" vertex="1">
          <mxGeometry x="30" y="480" width="150" height="50" as="geometry" />
        </mxCell>
        <mxCell id="jGeaBIZGjeNkgH-qbHt9-39" style="edgeStyle=orthogonalEdgeStyle;rounded=0;orthogonalLoop=1;jettySize=auto;html=1;exitX=0.5;exitY=1;exitDx=0;exitDy=0;entryX=0.5;entryY=0;entryDx=0;entryDy=0;fontFamily=Garamond;fontSize=12;" parent="1" source="jGeaBIZGjeNkgH-qbHt9-4" target="jGeaBIZGjeNkgH-qbHt9-5" edge="1">
          <mxGeometry relative="1" as="geometry" />
        </mxCell>
        <mxCell id="jGeaBIZGjeNkgH-qbHt9-4" value="Validation" style="shape=module;align=right;spacingLeft=20;align=center;verticalAlign=middle;fontFamily=Garamond;fontSize=18;labelBackgroundColor=none;gradientColor=#E6E6E6;fillColor=#3399FF;" parent="1" vertex="1">
          <mxGeometry x="30" y="810" width="150" height="50" as="geometry" />
        </mxCell>
        <mxCell id="jGeaBIZGjeNkgH-qbHt9-40" style="edgeStyle=orthogonalEdgeStyle;rounded=0;orthogonalLoop=1;jettySize=auto;html=1;exitX=0.5;exitY=1;exitDx=0;exitDy=0;entryX=0.5;entryY=0;entryDx=0;entryDy=0;fontFamily=Garamond;fontSize=12;" parent="1" source="jGeaBIZGjeNkgH-qbHt9-5" target="jGeaBIZGjeNkgH-qbHt9-7" edge="1">
          <mxGeometry relative="1" as="geometry" />
        </mxCell>
        <mxCell id="jGeaBIZGjeNkgH-qbHt9-5" value="Deploy" style="shape=module;align=right;spacingLeft=20;align=center;verticalAlign=middle;fontFamily=Garamond;fontSize=18;labelBackgroundColor=none;gradientColor=#E6E6E6;fillColor=#3399FF;" parent="1" vertex="1">
          <mxGeometry x="30" y="1080" width="150" height="50" as="geometry" />
        </mxCell>
        <mxCell id="jGeaBIZGjeNkgH-qbHt9-41" style="edgeStyle=orthogonalEdgeStyle;rounded=0;orthogonalLoop=1;jettySize=auto;html=1;exitX=0.5;exitY=1;exitDx=0;exitDy=0;entryX=0.5;entryY=0;entryDx=0;entryDy=0;fontFamily=Garamond;fontSize=12;" parent="1" source="jGeaBIZGjeNkgH-qbHt9-7" target="jGeaBIZGjeNkgH-qbHt9-8" edge="1">
          <mxGeometry relative="1" as="geometry" />
        </mxCell>
        <mxCell id="jGeaBIZGjeNkgH-qbHt9-7" value="Productionize" style="shape=module;align=right;spacingLeft=20;align=center;verticalAlign=middle;fontFamily=Garamond;fontSize=18;labelBackgroundColor=none;gradientColor=#E6E6E6;fillColor=#3399FF;" parent="1" vertex="1">
          <mxGeometry x="30" y="1360" width="150" height="50" as="geometry" />
        </mxCell>
        <mxCell id="jGeaBIZGjeNkgH-qbHt9-8" value="Decommission" style="shape=module;align=right;spacingLeft=20;align=center;verticalAlign=middle;fontFamily=Garamond;fontSize=18;labelBackgroundColor=none;gradientColor=#E6E6E6;fillColor=#3399FF;" parent="1" vertex="1">
          <mxGeometry x="30" y="1540" width="150" height="50" as="geometry" />
        </mxCell>
        <mxCell id="jGeaBIZGjeNkgH-qbHt9-10" value="&lt;div style=&quot;font-size: 17px;&quot; align=&quot;center&quot;&gt;Personas&lt;/div&gt;" style="rounded=1;whiteSpace=wrap;html=1;labelBackgroundColor=none;gradientColor=#E6E6E6;fontFamily=Times New Roman;fontSize=17;align=center;fillColor=#E6E6E6;" parent="1" vertex="1">
          <mxGeometry x="240" y="10" width="120" height="20" as="geometry" />
        </mxCell>
        <mxCell id="jGeaBIZGjeNkgH-qbHt9-11" value="Workflow" style="rounded=1;whiteSpace=wrap;html=1;labelBackgroundColor=none;gradientColor=#E6E6E6;fontFamily=Times New Roman;fontSize=17;align=center;fillColor=#E6E6E6;" parent="1" vertex="1">
          <mxGeometry x="675" y="10" width="120" height="20" as="geometry" />
        </mxCell>
        <mxCell id="jGeaBIZGjeNkgH-qbHt9-12" value="&lt;div style=&quot;font-size: 12px&quot; align=&quot;left&quot;&gt;&lt;ul&gt;&lt;li&gt;&lt;font style=&quot;font-size: 12px&quot;&gt;Model Developer&lt;/font&gt;&lt;/li&gt;&lt;li&gt;&lt;font style=&quot;font-size: 12px&quot;&gt;Business Analyst&lt;/font&gt;&lt;/li&gt;&lt;li&gt;&lt;font style=&quot;font-size: 12px&quot;&gt;Data Engineer&lt;/font&gt;&lt;/li&gt;&lt;/ul&gt;&lt;/div&gt;" style="shape=box;html=1;whiteSpace=wrap;startSize=0;container=1;collapsible=0;childLayout=tableLayout;fontSize=12;align=left;fillColor=#E6E6E6;gradientColor=#ffffff;" parent="1" vertex="1">
          <mxGeometry x="210" y="64" width="180" height="60" as="geometry" />
        </mxCell>
        <mxCell id="jGeaBIZGjeNkgH-qbHt9-15" value="" style="shape=box;html=1;whiteSpace=wrap;startSize=0;container=1;collapsible=0;childLayout=tableLayout;fontSize=12;gradientColor=#ffffff;fillColor=#E6E6E6;fontFamily=Times New Roman;" parent="1" vertex="1">
          <mxGeometry x="430" y="48" width="610" height="102" as="geometry" />
        </mxCell>
        <mxCell id="jGeaBIZGjeNkgH-qbHt9-16" value="" style="shape=partialRectangle;html=1;whiteSpace=wrap;collapsible=0;dropTarget=0;pointerEvents=0;fillColor=none;top=0;left=0;bottom=0;right=0;points=[[0,0.5],[1,0.5]];portConstraint=eastwest;fontFamily=Times New Roman;" parent="jGeaBIZGjeNkgH-qbHt9-15" vertex="1">
          <mxGeometry width="610" height="22" as="geometry" />
        </mxCell>
        <mxCell id="jGeaBIZGjeNkgH-qbHt9-17" value="&lt;div align=&quot;left&quot;&gt;&lt;b&gt;Discovery&lt;/b&gt;&lt;/div&gt;" style="shape=partialRectangle;html=1;whiteSpace=wrap;connectable=0;overflow=hidden;fillColor=none;top=0;left=0;bottom=0;right=0;align=left;fontFamily=Times New Roman;" parent="jGeaBIZGjeNkgH-qbHt9-16" vertex="1">
          <mxGeometry width="305" height="22" as="geometry" />
        </mxCell>
        <mxCell id="jGeaBIZGjeNkgH-qbHt9-18" value="&lt;div align=&quot;left&quot;&gt;&lt;b&gt;Model Definition&lt;/b&gt;&lt;/div&gt;" style="shape=partialRectangle;html=1;whiteSpace=wrap;connectable=0;overflow=hidden;fillColor=none;top=0;left=0;bottom=0;right=0;align=left;fontFamily=Times New Roman;" parent="jGeaBIZGjeNkgH-qbHt9-16" vertex="1">
          <mxGeometry x="305" width="305" height="22" as="geometry" />
        </mxCell>
        <mxCell id="jGeaBIZGjeNkgH-qbHt9-19" value="" style="shape=partialRectangle;html=1;whiteSpace=wrap;collapsible=0;dropTarget=0;pointerEvents=0;fillColor=none;top=0;left=0;bottom=0;right=0;points=[[0,0.5],[1,0.5]];portConstraint=eastwest;" parent="jGeaBIZGjeNkgH-qbHt9-15" vertex="1">
          <mxGeometry y="22" width="610" height="20" as="geometry" />
        </mxCell>
        <mxCell id="jGeaBIZGjeNkgH-qbHt9-20" value="&lt;div align=&quot;left&quot;&gt;Overview of business needs&lt;/div&gt;" style="shape=partialRectangle;html=1;whiteSpace=wrap;connectable=0;overflow=hidden;fillColor=none;top=0;left=0;bottom=0;right=0;align=left;fontFamily=Times New Roman;" parent="jGeaBIZGjeNkgH-qbHt9-19" vertex="1">
          <mxGeometry width="305" height="20" as="geometry" />
        </mxCell>
        <mxCell id="jGeaBIZGjeNkgH-qbHt9-21" value="&lt;div align=&quot;left&quot;&gt;Hypothesis testing&lt;/div&gt;" style="shape=partialRectangle;html=1;whiteSpace=wrap;connectable=0;overflow=hidden;fillColor=none;top=0;left=0;bottom=0;right=0;align=left;fontFamily=Times New Roman;" parent="jGeaBIZGjeNkgH-qbHt9-19" vertex="1">
          <mxGeometry x="305" width="305" height="20" as="geometry" />
        </mxCell>
        <mxCell id="jGeaBIZGjeNkgH-qbHt9-22" value="" style="shape=partialRectangle;html=1;whiteSpace=wrap;collapsible=0;dropTarget=0;pointerEvents=0;fillColor=none;top=0;left=0;bottom=0;right=0;points=[[0,0.5],[1,0.5]];portConstraint=eastwest;" parent="jGeaBIZGjeNkgH-qbHt9-15" vertex="1">
          <mxGeometry y="42" width="610" height="20" as="geometry" />
        </mxCell>
        <mxCell id="jGeaBIZGjeNkgH-qbHt9-23" value="&lt;div align=&quot;left&quot;&gt;List all use-cases/business scenarios&lt;/div&gt;" style="shape=partialRectangle;html=1;whiteSpace=wrap;connectable=0;overflow=hidden;fillColor=none;top=0;left=0;bottom=0;right=0;align=left;fontFamily=Times New Roman;" parent="jGeaBIZGjeNkgH-qbHt9-22" vertex="1">
          <mxGeometry width="305" height="20" as="geometry" />
        </mxCell>
        <mxCell id="jGeaBIZGjeNkgH-qbHt9-24" value="&lt;div align=&quot;left&quot;&gt;Define appropriate models and algorithms&lt;br&gt;&lt;/div&gt;" style="shape=partialRectangle;html=1;whiteSpace=wrap;connectable=0;overflow=hidden;fillColor=none;top=0;left=0;bottom=0;right=0;align=left;fontFamily=Times New Roman;" parent="jGeaBIZGjeNkgH-qbHt9-22" vertex="1">
          <mxGeometry x="305" width="305" height="20" as="geometry" />
        </mxCell>
        <mxCell id="jGeaBIZGjeNkgH-qbHt9-25" value="" style="shape=partialRectangle;html=1;whiteSpace=wrap;collapsible=0;dropTarget=0;pointerEvents=0;fillColor=none;top=0;left=0;bottom=0;right=0;points=[[0,0.5],[1,0.5]];portConstraint=eastwest;" parent="jGeaBIZGjeNkgH-qbHt9-15" vertex="1">
          <mxGeometry y="62" width="610" height="20" as="geometry" />
        </mxCell>
        <mxCell id="jGeaBIZGjeNkgH-qbHt9-26" value="&lt;div align=&quot;left&quot;&gt;High-level summary of expected business value&lt;/div&gt;&lt;div align=&quot;left&quot;&gt;&lt;br&gt;&lt;/div&gt;" style="shape=partialRectangle;html=1;whiteSpace=wrap;connectable=0;overflow=hidden;fillColor=none;top=0;left=0;bottom=0;right=0;align=left;verticalAlign=middle;fontFamily=Times New Roman;" parent="jGeaBIZGjeNkgH-qbHt9-25" vertex="1">
          <mxGeometry width="305" height="20" as="geometry" />
        </mxCell>
        <mxCell id="jGeaBIZGjeNkgH-qbHt9-27" value="&lt;div align=&quot;left&quot;&gt;Model registration and approval if necessary&lt;/div&gt;" style="shape=partialRectangle;html=1;whiteSpace=wrap;connectable=0;overflow=hidden;fillColor=none;top=0;left=0;bottom=0;right=0;align=left;fontFamily=Times New Roman;" parent="jGeaBIZGjeNkgH-qbHt9-25" vertex="1">
          <mxGeometry x="305" width="305" height="20" as="geometry" />
        </mxCell>
        <mxCell id="jGeaBIZGjeNkgH-qbHt9-28" value="" style="shape=partialRectangle;html=1;whiteSpace=wrap;collapsible=0;dropTarget=0;pointerEvents=0;fillColor=none;top=0;left=0;bottom=0;right=0;points=[[0,0.5],[1,0.5]];portConstraint=eastwest;" parent="jGeaBIZGjeNkgH-qbHt9-15" vertex="1">
          <mxGeometry y="82" width="610" height="20" as="geometry" />
        </mxCell>
        <mxCell id="jGeaBIZGjeNkgH-qbHt9-29" value="&lt;div align=&quot;left&quot;&gt;Expected Audience / End User&lt;/div&gt;" style="shape=partialRectangle;html=1;whiteSpace=wrap;connectable=0;overflow=hidden;fillColor=none;top=0;left=0;bottom=0;right=0;align=left;fontFamily=Times New Roman;" parent="jGeaBIZGjeNkgH-qbHt9-28" vertex="1">
          <mxGeometry width="305" height="20" as="geometry" />
        </mxCell>
        <mxCell id="jGeaBIZGjeNkgH-qbHt9-30" value="" style="shape=partialRectangle;html=1;whiteSpace=wrap;connectable=0;overflow=hidden;fillColor=none;top=0;left=0;bottom=0;right=0;" parent="jGeaBIZGjeNkgH-qbHt9-28" vertex="1">
          <mxGeometry x="305" width="305" height="20" as="geometry" />
        </mxCell>
        <mxCell id="jGeaBIZGjeNkgH-qbHt9-31" value="&lt;ul style=&quot;font-size: 12px&quot;&gt;&lt;li style=&quot;font-size: 12px&quot;&gt;Data Consumers (Data Scientists)&lt;/li&gt;&lt;li style=&quot;font-size: 12px&quot;&gt;Data Providers&lt;/li&gt;&lt;li style=&quot;font-size: 12px&quot;&gt;Data Engineers&lt;/li&gt;&lt;li style=&quot;font-size: 12px&quot;&gt;Data Stewarts&lt;br&gt;&lt;/li&gt;&lt;/ul&gt;" style="shape=box;html=1;whiteSpace=wrap;startSize=0;container=1;collapsible=0;childLayout=tableLayout;fontSize=12;align=left;fillColor=#E6E6E6;gradientColor=#ffffff;" parent="1" vertex="1">
          <mxGeometry x="220" y="217.5" width="180" height="115" as="geometry" />
        </mxCell>
        <mxCell id="jGeaBIZGjeNkgH-qbHt9-32" value="&lt;div align=&quot;left&quot;&gt;&lt;ul&gt;&lt;li&gt;ETL / Data prep needs&lt;/li&gt;&lt;ul&gt;&lt;li&gt;Establish data sources&lt;/li&gt;&lt;li&gt;Establish data size&lt;/li&gt;&lt;li&gt;Data Identification - structured transactional or historical data, unstructured data&lt;/li&gt;&lt;li&gt;Data connection and loading&lt;/li&gt;&lt;li&gt;Data transformation&lt;/li&gt;&lt;li&gt;Data virtualization&lt;/li&gt;&lt;/ul&gt;&lt;li&gt;Define model evaluation criteria for defined models from Initiate&lt;/li&gt;&lt;ul&gt;&lt;li&gt;Accuracy, log loss, ROC, F1, etc&lt;/li&gt;&lt;/ul&gt;&lt;li&gt;Define / discuss expected monitoring criteria and thresholds acceptable for business application&lt;br&gt;&lt;/li&gt;&lt;ul&gt;&lt;li&gt;Quality, Drift, Fairness&lt;br&gt;&lt;/li&gt;&lt;/ul&gt;&lt;/ul&gt;&lt;/div&gt;" style="shape=box;html=1;whiteSpace=wrap;startSize=0;container=1;collapsible=0;childLayout=tableLayout;fontSize=12;align=left;fillColor=#E6E6E6;gradientColor=#ffffff;fontFamily=Times New Roman;" parent="1" vertex="1">
          <mxGeometry x="430" y="185" width="610" height="180" as="geometry" />
        </mxCell>
        <mxCell id="jGeaBIZGjeNkgH-qbHt9-42" value="&lt;ul style=&quot;font-size: 12px&quot;&gt;&lt;li style=&quot;font-size: 12px&quot;&gt;Data Consumers (Data Scientists)&lt;/li&gt;&lt;li style=&quot;font-size: 12px&quot;&gt;Data Providers&lt;/li&gt;&lt;li style=&quot;font-size: 12px&quot;&gt;Data Engineers&lt;/li&gt;&lt;li style=&quot;font-size: 12px&quot;&gt;Data Stewarts&lt;br&gt;&lt;/li&gt;&lt;/ul&gt;" style="shape=box;html=1;whiteSpace=wrap;startSize=0;container=1;collapsible=0;childLayout=tableLayout;fontSize=12;align=left;fillColor=#E6E6E6;gradientColor=#ffffff;" parent="1" vertex="1">
          <mxGeometry x="220" y="447.5" width="180" height="115" as="geometry" />
        </mxCell>
        <mxCell id="jGeaBIZGjeNkgH-qbHt9-46" style="edgeStyle=orthogonalEdgeStyle;rounded=0;orthogonalLoop=1;jettySize=auto;html=1;exitX=0.5;exitY=1;exitDx=0;exitDy=0;entryX=0.5;entryY=0;entryDx=0;entryDy=0;fontFamily=Garamond;fontSize=12;" parent="1" source="jGeaBIZGjeNkgH-qbHt9-44" target="jGeaBIZGjeNkgH-qbHt9-4" edge="1">
          <mxGeometry relative="1" as="geometry" />
        </mxCell>
        <mxCell id="jGeaBIZGjeNkgH-qbHt9-44" value="Develop" style="shape=module;align=right;spacingLeft=20;align=center;verticalAlign=middle;fontFamily=Garamond;fontSize=18;labelBackgroundColor=none;gradientColor=#E6E6E6;fillColor=#3399FF;" parent="1" vertex="1">
          <mxGeometry x="30" y="650" width="150" height="50" as="geometry" />
        </mxCell>
        <mxCell id="jGeaBIZGjeNkgH-qbHt9-47" value="&lt;ul&gt;&lt;li&gt;&lt;span&gt;Establish Governance &lt;/span&gt;&lt;span&gt;requirements (Iterative process between &lt;/span&gt;&lt;span style=&quot;color: rgb(46 , 117 , 181)&quot;&gt;Collect&lt;/span&gt;&lt;span&gt; and &lt;/span&gt;&lt;span style=&quot;color: rgb(46 , 117 , 181)&quot;&gt;Organize&lt;/span&gt;&lt;span&gt;)&lt;/span&gt;&lt;/li&gt;&lt;ul&gt;&lt;li&gt;&lt;span&gt;Establish ground truth for&lt;/span&gt;&lt;span&gt; data lake/sources of the catalog&lt;/span&gt;&lt;/li&gt;&lt;li&gt;&lt;span&gt;Ensure this data is &lt;/span&gt;&lt;span style=&quot;font-weight: bold ; color: rgb(46 , 117 , 181)&quot;&gt;clean&lt;/span&gt;&lt;span&gt; and &lt;/span&gt;&lt;span style=&quot;font-weight: bold ; color: rgb(46 , 117 , 181)&quot;&gt;compliant&lt;/span&gt;&lt;/li&gt;&lt;/ul&gt;&lt;li&gt;&lt;span&gt;Catalog data to provide&lt;/span&gt;&lt;span&gt; certain metadata&lt;/span&gt;&lt;/li&gt;&lt;ul&gt;&lt;li&gt;&lt;span&gt;Source &lt;/span&gt;&lt;/li&gt;&lt;li&gt;&lt;span&gt;Ownership&lt;/span&gt;&lt;/li&gt;&lt;li&gt;&lt;span&gt;Other relevant metadata associated with its business context&lt;/span&gt;&lt;/li&gt;&lt;li&gt;&lt;span&gt;This is up-to-date data - possibly real-time data&lt;/span&gt;&lt;/li&gt;&lt;li&gt;&lt;span&gt;This is trusted data void of&lt;span&gt; &lt;/span&gt;inconsistencies and redundancies&lt;/span&gt;&lt;/li&gt;&lt;li&gt;&lt;span&gt;Establish &lt;/span&gt;&lt;span style=&quot;font-weight: bold ; color: rgb(46 , 117 , 181)&quot;&gt;Data Privacy&lt;/span&gt;&lt;span&gt; and &lt;/span&gt;&lt;span style=&quot;font-weight: bold ; color: rgb(46 , 117 , 181)&quot;&gt;Regulatory Compliance&lt;/span&gt;&lt;/li&gt;&lt;/ul&gt;&lt;/ul&gt;" style="shape=box;html=1;whiteSpace=wrap;startSize=0;container=1;collapsible=0;childLayout=tableLayout;fontSize=12;align=left;fillColor=#E6E6E6;gradientColor=#ffffff;fontFamily=Times New Roman;" parent="1" vertex="1">
          <mxGeometry x="430" y="400" width="610" height="170" as="geometry" />
        </mxCell>
        <mxCell id="jGeaBIZGjeNkgH-qbHt9-48" value="&lt;ul style=&quot;font-size: 12px&quot;&gt;&lt;li style=&quot;font-size: 12px&quot;&gt;Model Developer&lt;br&gt;&lt;/li&gt;&lt;/ul&gt;" style="shape=box;html=1;whiteSpace=wrap;startSize=0;container=1;collapsible=0;childLayout=tableLayout;fontSize=12;align=left;fillColor=#E6E6E6;gradientColor=#ffffff;" parent="1" vertex="1">
          <mxGeometry x="220" y="660" width="180" height="30" as="geometry" />
        </mxCell>
        <mxCell id="jGeaBIZGjeNkgH-qbHt9-49" value="&lt;ul&gt;&lt;li&gt;&lt;span style=&quot;font-family: &amp;#34;calibri&amp;#34; ; font-size: 12px&quot;&gt;Source data from Catalog&lt;/span&gt;&lt;/li&gt;&lt;li&gt;&lt;span style=&quot;font-family: &amp;#34;calibri&amp;#34; ; font-size: 12px&quot;&gt;Perform EDA&lt;/span&gt;&lt;/li&gt;&lt;li&gt;&lt;span style=&quot;font-family: &amp;#34;calibri&amp;#34; ; font-size: 12px&quot;&gt;Construct model&lt;/span&gt;&lt;/li&gt;&lt;li&gt;&lt;span style=&quot;font-family: &amp;#34;calibri&amp;#34; ; font-size: 12px&quot;&gt;Experiment Management&lt;/span&gt;&lt;/li&gt;&lt;ul&gt;&lt;li&gt;&lt;span style=&quot;font-family: &amp;#34;calibri&amp;#34; ; font-size: 12px&quot;&gt;Initiate model and connected&lt;/span&gt;&lt;span style=&quot;font-family: &amp;#34;calibri&amp;#34; ; font-size: 12px&quot;&gt;      data assets &lt;/span&gt;&lt;span style=&quot;font-family: &amp;#34;calibri&amp;#34; ; font-size: 12px ; color: rgb(232 , 76 , 34)&quot;&gt;model.revision()&lt;/span&gt;&lt;/li&gt;&lt;li&gt;&lt;span style=&quot;font-family: &amp;#34;calibri&amp;#34; ; font-size: 12px&quot;&gt;Initiate model lineage&lt;/span&gt;&lt;span style=&quot;font-family: &amp;#34;calibri&amp;#34; ; font-size: 12px&quot;&gt; tracking - &lt;/span&gt;&lt;span style=&quot;font-family: &amp;#34;calibri&amp;#34; ; font-size: 12px ; color: rgb(232 , 76 , 34)&quot;&gt;model.lineage()&lt;/span&gt;&lt;/li&gt;&lt;/ul&gt;&lt;/ul&gt;" style="shape=box;html=1;whiteSpace=wrap;startSize=0;container=1;collapsible=0;childLayout=tableLayout;fontSize=12;align=left;fillColor=#E6E6E6;gradientColor=#ffffff;fontFamily=Times New Roman;" parent="1" vertex="1">
          <mxGeometry x="430" y="620" width="610" height="110" as="geometry" />
        </mxCell>
        <mxCell id="3367msrZ9Tto2IH68S4X-1" value="&lt;ul style=&quot;font-size: 12px&quot;&gt;&lt;li style=&quot;font-size: 12px&quot;&gt;Model Developer&lt;br&gt;&lt;/li&gt;&lt;/ul&gt;" style="shape=box;html=1;whiteSpace=wrap;startSize=0;container=1;collapsible=0;childLayout=tableLayout;fontSize=12;align=left;fillColor=#E6E6E6;gradientColor=#ffffff;" vertex="1" parent="1">
          <mxGeometry x="220" y="820" width="180" height="30" as="geometry" />
        </mxCell>
        <mxCell id="3367msrZ9Tto2IH68S4X-2" value="&lt;ul&gt;&lt;li&gt;&lt;span style=&quot;font-family: &amp;#34;calibri&amp;#34; ; font-size: 12px&quot;&gt;Experiment Validation (cont)&lt;br&gt;&lt;/span&gt;&lt;/li&gt;&lt;li&gt;&lt;span style=&quot;font-family: &amp;#34;calibri&amp;#34; ; font-size: 12px&quot;&gt;Train / Test / Validation&lt;br&gt;&lt;/span&gt;&lt;/li&gt;&lt;li&gt;&lt;span style=&quot;font-family: &amp;#34;calibri&amp;#34; ; font-size: 12px&quot;&gt;Call &lt;/span&gt;&lt;span style=&quot;font-family: &amp;#34;calibri&amp;#34; ; font-size: 12px&quot;&gt;&lt;span style=&quot;font-family: &amp;#34;calibri&amp;#34; ; font-size: 12px ; color: rgb(232 , 76 , 34)&quot;&gt;model.revision()&lt;/span&gt;&lt;/span&gt;&lt;/li&gt;&lt;li&gt;&lt;span style=&quot;font-family: &amp;#34;calibri&amp;#34; ; font-size: 12px&quot;&gt;&lt;span style=&quot;font-family: &amp;#34;calibri&amp;#34; ; font-size: 12px ; color: rgb(232 , 76 , 34)&quot;&gt;&lt;font color=&quot;#000000&quot;&gt;Final model Validation (to be sent to OpenScale for pre-production quality validation using test set(s))&lt;/font&gt;&lt;br&gt;&lt;/span&gt;&lt;/span&gt;&lt;/li&gt;&lt;/ul&gt;" style="shape=box;html=1;whiteSpace=wrap;startSize=0;container=1;collapsible=0;childLayout=tableLayout;fontSize=12;align=left;fillColor=#E6E6E6;gradientColor=#ffffff;fontFamily=Times New Roman;" vertex="1" parent="1">
          <mxGeometry x="430" y="780" width="610" height="110" as="geometry" />
        </mxCell>
        <mxCell id="3367msrZ9Tto2IH68S4X-3" value="&lt;ul style=&quot;font-size: 12px&quot;&gt;&lt;li style=&quot;font-size: 12px&quot;&gt;Model Developer&lt;br&gt;&lt;/li&gt;&lt;/ul&gt;" style="shape=box;html=1;whiteSpace=wrap;startSize=0;container=1;collapsible=0;childLayout=tableLayout;fontSize=12;align=left;fillColor=#E6E6E6;gradientColor=#ffffff;" vertex="1" parent="1">
          <mxGeometry x="210" y="1090" width="180" height="30" as="geometry" />
        </mxCell>
        <mxCell id="3367msrZ9Tto2IH68S4X-4" value="&lt;ul&gt;&lt;li&gt;&lt;span style=&quot;font-family: &amp;#34;calibri&amp;#34; ; font-size: 11px&quot;&gt;Kickoff Kedro pipeline*&lt;/span&gt;&lt;/li&gt;&lt;li&gt;&lt;span style=&quot;font-family: &amp;#34;calibri&amp;#34; ; font-size: 11px&quot;&gt;Establish Deployment type&lt;/span&gt;&lt;/li&gt;&lt;ul&gt;&lt;li&gt;&lt;span style=&quot;font-family: &amp;#34;calibri&amp;#34; ; font-size: 11px&quot;&gt;Batch&lt;/span&gt;&lt;span style=&quot;font-family: &amp;#34;calibri&amp;#34; ; font-size: 11px&quot;&gt;&lt;/span&gt;&lt;/li&gt;&lt;li&gt;&lt;span style=&quot;font-family: &amp;#34;calibri&amp;#34; ; font-size: 11px&quot;&gt;Online&lt;/span&gt;&lt;span style=&quot;font-family: &amp;#34;calibri&amp;#34; ; font-size: 11px&quot;&gt;&lt;/span&gt;&lt;/li&gt;&lt;/ul&gt;&lt;li&gt;&lt;span style=&quot;font-family: &amp;#34;calibri&amp;#34; ; font-size: 11px&quot;&gt;Model scoring&lt;/span&gt;&lt;span style=&quot;font-family: &amp;#34;calibri&amp;#34; ; font-size: 11px&quot;&gt;&lt;/span&gt;&lt;/li&gt;&lt;li&gt;&lt;span style=&quot;font-family: &amp;#34;calibri&amp;#34; ; font-size: 11px&quot;&gt;Artifacts Management&lt;/span&gt;&lt;span style=&quot;font-family: &amp;#34;calibri&amp;#34; ; font-size: 11px&quot;&gt;&lt;span style=&quot;font-size: 11px&quot;&gt;&lt;/span&gt;&lt;/span&gt;&lt;/li&gt;&lt;ul&gt;&lt;li&gt;&lt;span style=&quot;font-family: &amp;#34;calibri&amp;#34; ; font-size: 11px&quot;&gt;&lt;span style=&quot;font-size: 11px&quot;&gt;&lt;/span&gt;maybe handle by Kedro&lt;/span&gt;&lt;span style=&quot;font-family: &amp;#34;calibri&amp;#34; ; font-size: 11px&quot;&gt;&lt;/span&gt;&lt;/li&gt;&lt;/ul&gt;&lt;li&gt;&lt;span style=&quot;font-family: &amp;#34;calibri&amp;#34; ; font-size: 11px&quot;&gt;Change Management&lt;/span&gt;&lt;span style=&quot;font-family: &amp;#34;calibri&amp;#34; ; font-size: 11px&quot;&gt;&lt;/span&gt;&lt;/li&gt;&lt;ul&gt;&lt;li&gt;&lt;span style=&quot;font-family: &amp;#34;calibri&amp;#34; ; font-size: 11px&quot;&gt;Lewin&#39;s Change Management&lt;/span&gt;&lt;span style=&quot;font-family: &amp;#34;calibri&amp;#34; ; font-size: 11px&quot;&gt; Model&lt;/span&gt;&lt;span style=&quot;font-family: &amp;#34;calibri&amp;#34; ; font-size: 11px&quot;&gt;&lt;/span&gt;&lt;/li&gt;&lt;ul&gt;&lt;li&gt;&lt;span style=&quot;font-family: &amp;#34;calibri&amp;#34; ; font-size: 11px&quot;&gt;Unfreeze&lt;/span&gt;&lt;span style=&quot;font-family: &amp;#34;calibri&amp;#34; ; font-size: 11px&quot;&gt;&lt;/span&gt;&lt;/li&gt;&lt;ul&gt;&lt;li&gt;&lt;span style=&quot;font-family: &amp;#34;calibri&amp;#34; ; font-size: 11px&quot;&gt;Unfreeze current processes&lt;/span&gt;&lt;span style=&quot;font-family: &amp;#34;calibri&amp;#34; ; font-size: 11px&quot;&gt; or perceptions&lt;/span&gt;&lt;span style=&quot;font-family: &amp;#34;calibri&amp;#34; ; font-size: 11px&quot;&gt;&lt;/span&gt;&lt;/li&gt;&lt;/ul&gt;&lt;li&gt;&lt;span style=&quot;font-family: &amp;#34;calibri&amp;#34; ; font-size: 11px&quot;&gt;Change&lt;/span&gt;&lt;span style=&quot;font-family: &amp;#34;calibri&amp;#34; ; font-size: 11px&quot;&gt;&lt;/span&gt;&lt;/li&gt;&lt;ul&gt;&lt;li&gt;&lt;span style=&quot;font-family: &amp;#34;calibri&amp;#34; ; font-size: 11px&quot;&gt;Implement necessary&lt;/span&gt;&lt;span style=&quot;font-family: &amp;#34;calibri&amp;#34; ; font-size: 11px&quot;&gt; changes&lt;/span&gt;&lt;span style=&quot;font-family: &amp;#34;calibri&amp;#34; ; font-size: 11px&quot;&gt;&lt;/span&gt;&lt;/li&gt;&lt;/ul&gt;&lt;li&gt;&lt;span style=&quot;font-family: &amp;#34;calibri&amp;#34; ; font-size: 11px&quot;&gt;Refreeze&lt;/span&gt;&lt;span style=&quot;font-family: &amp;#34;calibri&amp;#34; ; font-size: 11px&quot;&gt;&lt;/span&gt;&lt;/li&gt;&lt;ul&gt;&lt;li&gt;&lt;span style=&quot;font-family: &amp;#34;calibri&amp;#34; ; font-size: 11px&quot;&gt;Refreeze/lock in and&lt;/span&gt;&lt;span style=&quot;font-family: &amp;#34;calibri&amp;#34; ; font-size: 11px&quot;&gt; infuse new process&lt;/span&gt;&lt;span style=&quot;font-family: &amp;#34;calibri&amp;#34; ; font-size: 11px&quot;&gt;&lt;/span&gt;&lt;/li&gt;&lt;/ul&gt;&lt;/ul&gt;&lt;/ul&gt;&lt;li&gt;&lt;span style=&quot;font-family: &amp;#34;calibri&amp;#34; ; font-size: 11px&quot;&gt;Update Governance Catalog&lt;/span&gt;&lt;span style=&quot;font-family: &amp;#34;calibri&amp;#34; ; font-size: 11px&quot;&gt;&lt;/span&gt;&lt;/li&gt;&lt;ul&gt;&lt;li&gt;&lt;span style=&quot;font-family: &amp;#34;calibri&amp;#34; ; font-size: 11px&quot;&gt;Secure and Publish&lt;/span&gt;&lt;span style=&quot;font-family: &amp;#34;calibri&amp;#34; ; font-size: 11px&quot;&gt;&lt;/span&gt;&lt;/li&gt;&lt;/ul&gt;&lt;li&gt;&lt;span style=&quot;font-family: &amp;#34;calibri&amp;#34; ; font-size: 11px&quot;&gt;PreProd Staging in &lt;/span&gt;&lt;span style=&quot;font-weight: bold ; font-family: &amp;#34;calibri&amp;#34; ; font-size: 11px ; color: rgb(46 , 117 , 181)&quot;&gt;OpenScale&lt;/span&gt;&lt;span style=&quot;font-family: &amp;#34;calibri&amp;#34; ; font-size: 11px&quot;&gt;&lt;/span&gt;&lt;/li&gt;&lt;ul&gt;&lt;li&gt;&lt;span style=&quot;font-family: &amp;#34;calibri&amp;#34; ; font-size: 11px&quot;&gt;Quality validation with&lt;/span&gt;&lt;span style=&quot;font-family: &amp;#34;calibri&amp;#34; ; font-size: 11px&quot;&gt;&lt;/span&gt;&lt;span style=&quot;font-family: &amp;#34;calibri&amp;#34; ; font-size: 11px&quot;&gt; static test set&lt;/span&gt;&lt;span style=&quot;font-family: &amp;#34;calibri&amp;#34; ; font-size: 11px&quot;&gt;&lt;/span&gt;&lt;/li&gt;&lt;ul&gt;&lt;li&gt;&lt;span style=&quot;font-family: &amp;#34;calibri&amp;#34; ; font-size: 11px&quot;&gt;Testing Quality&lt;/span&gt;&lt;span style=&quot;font-family: &amp;#34;calibri&amp;#34; ; font-size: 11px&quot;&gt;&lt;/span&gt;&lt;/li&gt;&lt;li&gt;&lt;span style=&quot;font-family: &amp;#34;calibri&amp;#34; ; font-size: 11px&quot;&gt;Fairness, Bias&lt;/span&gt;&lt;span style=&quot;font-family: &amp;#34;calibri&amp;#34; ; font-size: 11px&quot;&gt;&lt;/span&gt;&lt;/li&gt;&lt;li&gt;&lt;span style=&quot;font-family: &amp;#34;calibri&amp;#34; ; font-size: 11px&quot;&gt;Drift&lt;/span&gt;&lt;span style=&quot;font-family: &amp;#34;calibri&amp;#34; ; font-size: 11px&quot;&gt;&lt;/span&gt;&lt;/li&gt;&lt;ul&gt;&lt;li&gt;&lt;span style=&quot;font-family: &amp;#34;calibri&amp;#34; ; font-size: 11px&quot;&gt;Data&amp;nbsp;&lt;/span&gt;&lt;span style=&quot;font-family: &amp;#34;calibri&amp;#34; ; font-size: 11px&quot;&gt;&lt;/span&gt;&lt;/li&gt;&lt;li&gt;&lt;span style=&quot;font-family: &amp;#34;calibri&amp;#34; ; font-size: 11px&quot;&gt;Model&lt;/span&gt;&lt;span style=&quot;font-family: &amp;#34;calibri&amp;#34; ; font-size: 11px&quot;&gt;&lt;/span&gt;&lt;/li&gt;&lt;/ul&gt;&lt;/ul&gt;&lt;li&gt;&lt;span style=&quot;font-family: &amp;#34;calibri&amp;#34; ; font-size: 11px&quot;&gt;Approve/Reject&lt;/span&gt;&lt;/li&gt;&lt;/ul&gt;&lt;/ul&gt;" style="shape=box;html=1;whiteSpace=wrap;startSize=0;container=1;collapsible=0;childLayout=tableLayout;fontSize=11;align=left;fillColor=#E6E6E6;gradientColor=#ffffff;fontFamily=Times New Roman;" vertex="1" parent="1">
          <mxGeometry x="430" y="920" width="610" height="370" as="geometry" />
        </mxCell>
        <mxCell id="3367msrZ9Tto2IH68S4X-5" style="edgeStyle=orthogonalEdgeStyle;rounded=0;orthogonalLoop=1;jettySize=auto;html=1;exitX=0.5;exitY=1;exitDx=0;exitDy=0;fontFamily=Times New Roman;fontSize=11;" edge="1" parent="1" source="3367msrZ9Tto2IH68S4X-4" target="3367msrZ9Tto2IH68S4X-4">
          <mxGeometry relative="1" as="geometry" />
        </mxCell>
        <mxCell id="3367msrZ9Tto2IH68S4X-6" value="&lt;ul style=&quot;font-size: 12px&quot;&gt;&lt;li style=&quot;font-size: 12px&quot;&gt;Model Developer&lt;br&gt;&lt;/li&gt;&lt;/ul&gt;" style="shape=box;html=1;whiteSpace=wrap;startSize=0;container=1;collapsible=0;childLayout=tableLayout;fontSize=12;align=left;fillColor=#E6E6E6;gradientColor=#ffffff;" vertex="1" parent="1">
          <mxGeometry x="210" y="1370" width="180" height="30" as="geometry" />
        </mxCell>
        <mxCell id="3367msrZ9Tto2IH68S4X-7" value="&lt;ul&gt;&lt;li&gt;&lt;span style=&quot;font-family: &amp;#34;calibri&amp;#34; ; font-size: 12px&quot;&gt;Implement Production&lt;/span&gt;&lt;span style=&quot;font-family: &amp;#34;calibri&amp;#34; ; font-size: 12px&quot;&gt; Monitoring tile &lt;/span&gt;&lt;span style=&quot;font-weight: bold ; font-family: &amp;#34;calibri&amp;#34; ; font-size: 12px ; color: rgb(46 , 117 , 181)&quot;&gt;OpenScale&lt;/span&gt;&lt;span style=&quot;font-family: &amp;#34;calibri&amp;#34; ; font-size: 12px ; color: rgb(32 , 31 , 30)&quot;&gt;&lt;/span&gt;&lt;/li&gt;&lt;li&gt;&lt;span style=&quot;font-family: &amp;#34;calibri&amp;#34; ; font-size: 12px ; color: rgb(32 , 31 , 30)&quot;&gt;Runtime model&lt;/span&gt;&lt;span style=&quot;font-family: &amp;#34;calibri&amp;#34; ; font-size: 12px ; color: rgb(32 , 31 , 30)&quot;&gt; monitoring&lt;/span&gt;&lt;span style=&quot;font-family: &amp;#34;calibri&amp;#34; ; font-size: 12px ; color: rgb(32 , 31 , 30)&quot;&gt;&lt;/span&gt;&lt;/li&gt;&lt;li&gt;&lt;span style=&quot;font-family: &amp;#34;calibri&amp;#34; ; font-size: 12px ; color: rgb(32 , 31 , 30)&quot;&gt;Continuously&lt;/span&gt;&lt;span style=&quot;font-family: &amp;#34;calibri&amp;#34; ; font-size: 12px ; color: rgb(32 , 31 , 30)&quot;&gt; Score&lt;/span&gt;&lt;span style=&quot;font-family: &amp;#34;calibri&amp;#34; ; font-size: 12px ; color: rgb(32 , 31 , 30)&quot;&gt;&lt;/span&gt;&lt;/li&gt;&lt;ul&gt;&lt;li&gt;&lt;span style=&quot;font-family: &amp;#34;calibri&amp;#34; ; font-size: 12px ; color: rgb(32 , 31 , 30)&quot;&gt;Anomaly&lt;/span&gt;&lt;span style=&quot;font-family: &amp;#34;calibri&amp;#34; ; font-size: 12px ; color: rgb(32 , 31 , 30)&quot;&gt; detection&lt;/span&gt;&lt;span style=&quot;font-family: &amp;#34;calibri&amp;#34; ; font-size: 12px ; color: rgb(32 , 31 , 30)&quot;&gt;&lt;/span&gt;&lt;/li&gt;&lt;li&gt;&lt;span style=&quot;font-family: &amp;#34;calibri&amp;#34; ; font-size: 12px ; color: rgb(32 , 31 , 30)&quot;&gt;Fairness, Bias&lt;/span&gt;&lt;span style=&quot;font-family: &amp;#34;calibri&amp;#34; ; font-size: 12px ; color: rgb(32 , 31 , 30)&quot;&gt;&lt;/span&gt;&lt;/li&gt;&lt;li&gt;&lt;span style=&quot;font-family: &amp;#34;calibri&amp;#34; ; font-size: 12px ; color: rgb(32 , 31 , 30)&quot;&gt;Quality&lt;/span&gt;&lt;span style=&quot;font-family: &amp;#34;calibri&amp;#34; ; font-size: 12px ; color: rgb(32 , 31 , 30)&quot;&gt;&lt;/span&gt;&lt;/li&gt;&lt;li&gt;&lt;span style=&quot;font-family: &amp;#34;calibri&amp;#34; ; font-size: 12px ; color: rgb(32 , 31 , 30)&quot;&gt;Drift&lt;/span&gt;&lt;span style=&quot;font-family: &amp;#34;calibri&amp;#34; ; font-size: 12px&quot;&gt;&lt;/span&gt;&lt;/li&gt;&lt;/ul&gt;&lt;li&gt;&lt;span style=&quot;font-family: &amp;#34;calibri&amp;#34; ; font-size: 12px&quot;&gt;Compile metrics reporting&lt;/span&gt;&lt;span style=&quot;font-family: &amp;#34;calibri&amp;#34; ; font-size: 12px ; color: rgb(32 , 31 , 30)&quot;&gt;&lt;/span&gt;&lt;/li&gt;&lt;li&gt;&lt;span style=&quot;font-family: &amp;#34;calibri&amp;#34; ; font-size: 12px ; color: rgb(32 , 31 , 30)&quot;&gt;Full &lt;/span&gt;&lt;span style=&quot;font-weight: bold ; font-family: &amp;#34;calibri&amp;#34; ; font-size: 12px ; color: rgb(46 , 117 , 181)&quot;&gt;Model&lt;/span&gt;&lt;span style=&quot;font-weight: bold ; font-family: &amp;#34;calibri&amp;#34; ; font-size: 12px ; color: rgb(46 , 117 , 181)&quot;&gt; Governance&lt;/span&gt;&lt;/li&gt;&lt;/ul&gt;" style="shape=box;html=1;whiteSpace=wrap;startSize=0;container=1;collapsible=0;childLayout=tableLayout;fontSize=12;align=left;fillColor=#E6E6E6;gradientColor=#ffffff;fontFamily=Times New Roman;" vertex="1" parent="1">
          <mxGeometry x="430" y="1310" width="610" height="150" as="geometry" />
        </mxCell>
        <mxCell id="3367msrZ9Tto2IH68S4X-8" value="&lt;ul style=&quot;font-size: 12px&quot;&gt;&lt;li style=&quot;font-size: 12px&quot;&gt;Model Developer&lt;br&gt;&lt;/li&gt;&lt;/ul&gt;" style="shape=box;html=1;whiteSpace=wrap;startSize=0;container=1;collapsible=0;childLayout=tableLayout;fontSize=12;align=left;fillColor=#E6E6E6;gradientColor=#ffffff;" vertex="1" parent="1">
          <mxGeometry x="210" y="1550" width="180" height="30" as="geometry" />
        </mxCell>
        <mxCell id="3367msrZ9Tto2IH68S4X-9" value="&lt;ul&gt;&lt;li&gt;Flag model for decommission&lt;/li&gt;&lt;li&gt;Decommission model&lt;br&gt;&lt;/li&gt;&lt;/ul&gt;" style="shape=box;html=1;whiteSpace=wrap;startSize=0;container=1;collapsible=0;childLayout=tableLayout;fontSize=12;align=left;fillColor=#E6E6E6;gradientColor=#ffffff;fontFamily=Times New Roman;" vertex="1" parent="1">
          <mxGeometry x="430" y="1540" width="610" height="50" as="geometry" />
        </mxCell>
      </root>
    </mxGraphModel>
  </diagram>
</mxfile>
